<svg xmlns="http://www.w3.org/2000/svg" xmlns:xlink="http://www.w3.org/1999/xlink" width="852pt" height="1254pt" viewBox="0.00 0.00 852.00 1254.00">
<g id="graph0" class="graph" transform="scale(1 1) rotate(0) translate(4 1249.51)">
<title>ATM</title>
<polygon fill="white" stroke="none" points="-4,4 -4,-1249.51 848.39,-1249.51 848.39,4 -4,4"/>
<!-- Start -->
<g id="node1" class="node">
<title>Start</title>
<ellipse fill="none" stroke="black" cx="618" cy="-1222.88" rx="40.39" ry="22.63"/>
<text xml:space="preserve" text-anchor="middle" x="618" y="-1225.88" font-family="Helvetica,sans-Serif" font-size="10.00">BAŞLA</text>
<text xml:space="preserve" text-anchor="middle" x="618" y="-1213.88" font-family="Helvetica,sans-Serif" font-size="10.00">(Kart tak)</text>
</g>
<!-- ReadCard -->
<g id="node2" class="node">
<title>ReadCard</title>
<polygon fill="none" stroke="black" points="659.62,-1163.25 576.38,-1163.25 576.38,-1127.25 659.62,-1127.25 659.62,-1163.25"/>
<text xml:space="preserve" text-anchor="middle" x="618" y="-1148.25" font-family="Helvetica,sans-Serif" font-size="10.00">Kart oku</text>
<text xml:space="preserve" text-anchor="middle" x="618" y="-1136.25" font-family="Helvetica,sans-Serif" font-size="10.00">(karte bilgisi al)</text>
</g>
<!-- Start&#45;&gt;ReadCard -->
<g id="edge1" class="edge">
<title>Start-&gt;ReadCard</title>
<path fill="none" stroke="black" d="M618,-1200.01C618,-1192.06 618,-1182.97 618,-1174.54"/>
<polygon fill="black" stroke="black" points="621.5,-1174.79 618,-1164.79 614.5,-1174.79 621.5,-1174.79"/>
</g>
<!-- CardErr -->
<g id="node3" class="node">
<title>CardErr</title>
<polygon fill="none" stroke="red" points="631.96,-1080.45 542.04,-1080.45 542.04,-1044.45 631.96,-1044.45 631.96,-1080.45"/>
<text xml:space="preserve" text-anchor="middle" x="587" y="-1065.45" font-family="Helvetica,sans-Serif" font-size="10.00">Kart okunamadı</text>
<text xml:space="preserve" text-anchor="middle" x="587" y="-1053.45" font-family="Helvetica,sans-Serif" font-size="10.00">İşlem sonlandır</text>
</g>
<!-- ReadCard&#45;&gt;CardErr -->
<g id="edge2" class="edge">
<title>ReadCard-&gt;CardErr</title>
<path fill="none" stroke="red" stroke-dasharray="5,2" d="M611.43,-1127.12C607.47,-1116.8 602.33,-1103.4 597.79,-1091.57"/>
<polygon fill="red" stroke="red" points="601.06,-1090.34 594.21,-1082.26 594.53,-1092.85 601.06,-1090.34"/>
<text xml:space="preserve" text-anchor="middle" x="627.87" y="-1101.15" font-family="Helvetica,sans-Serif" font-size="9.00">okunamadı</text>
</g>
<!-- GetAccount -->
<g id="node4" class="node">
<title>GetAccount</title>
<polygon fill="none" stroke="black" points="788.41,-1080.45 649.59,-1080.45 649.59,-1044.45 788.41,-1044.45 788.41,-1080.45"/>
<text xml:space="preserve" text-anchor="middle" x="719" y="-1065.45" font-family="Helvetica,sans-Serif" font-size="10.00">Hesap bilgilerini al</text>
<text xml:space="preserve" text-anchor="middle" x="719" y="-1053.45" font-family="Helvetica,sans-Serif" font-size="10.00">(bakiye,günlük limit,çekilen)</text>
</g>
<!-- ReadCard&#45;&gt;GetAccount -->
<g id="edge3" class="edge">
<title>ReadCard-&gt;GetAccount</title>
<path fill="none" stroke="black" d="M639.42,-1127.12C653.65,-1115.73 672.56,-1100.61 688.37,-1087.96"/>
<polygon fill="black" stroke="black" points="690.46,-1090.77 696.08,-1081.79 686.09,-1085.3 690.46,-1090.77"/>
</g>
<!-- PIN_Input -->
<g id="node6" class="node">
<title>PIN_Input</title>
<polygon fill="none" stroke="black" points="746,-1007.45 692,-1007.45 692,-971.45 746,-971.45 746,-1007.45"/>
<text xml:space="preserve" text-anchor="middle" x="719" y="-986.45" font-family="Helvetica,sans-Serif" font-size="10.00">PIN gir</text>
</g>
<!-- GetAccount&#45;&gt;PIN_Input -->
<g id="edge4" class="edge">
<title>GetAccount-&gt;PIN_Input</title>
<path fill="none" stroke="black" d="M719,-1044.27C719,-1036.68 719,-1027.56 719,-1018.99"/>
<polygon fill="black" stroke="black" points="722.5,-1019 719,-1009 715.5,-1019 722.5,-1019"/>
</g>
<!-- PIN_LOOP -->
<g id="node5" class="node">
<title>PIN_LOOP</title>
<polygon fill="none" stroke="black" points="660,-934.45 576.75,-902.45 660,-870.45 743.25,-902.45 660,-934.45"/>
<text xml:space="preserve" text-anchor="middle" x="660" y="-905.45" font-family="Helvetica,sans-Serif" font-size="10.00">PIN doğru mu?</text>
<text xml:space="preserve" text-anchor="middle" x="660" y="-893.45" font-family="Helvetica,sans-Serif" font-size="10.00">(3 deneme)</text>
</g>
<!-- PIN_Incorrect -->
<g id="node7" class="node">
<title>PIN_Incorrect</title>
<polygon fill="none" stroke="black" points="827.02,-823.65 730.98,-823.65 730.98,-787.65 827.02,-787.65 827.02,-823.65"/>
<text xml:space="preserve" text-anchor="middle" x="779" y="-808.65" font-family="Helvetica,sans-Serif" font-size="10.00">Yanlış PIN</text>
<text xml:space="preserve" text-anchor="middle" x="779" y="-796.65" font-family="Helvetica,sans-Serif" font-size="10.00">(kalan hak göster)</text>
</g>
<!-- PIN_LOOP&#45;&gt;PIN_Incorrect -->
<g id="edge6" class="edge">
<title>PIN_LOOP-&gt;PIN_Incorrect</title>
<path fill="none" stroke="red" d="M686.41,-880.42C704.65,-865.88 728.98,-846.5 748.12,-831.26"/>
<polygon fill="red" stroke="red" points="750.22,-834.05 755.86,-825.09 745.86,-828.58 750.22,-834.05"/>
<text xml:space="preserve" text-anchor="middle" x="745.66" y="-844.35" font-family="Helvetica,sans-Serif" font-size="9.00">Hayır</text>
</g>
<!-- MainLoop -->
<g id="node9" class="node">
<title>MainLoop</title>
<polygon fill="none" stroke="black" points="608,-823.65 503.18,-805.65 608,-787.65 712.82,-805.65 608,-823.65"/>
<text xml:space="preserve" text-anchor="middle" x="608" y="-802.65" font-family="Helvetica,sans-Serif" font-size="10.00">Yeni işlem ister misiniz?</text>
</g>
<!-- PIN_LOOP&#45;&gt;MainLoop -->
<g id="edge7" class="edge">
<title>PIN_LOOP-&gt;MainLoop</title>
<path fill="none" stroke="green" d="M645.79,-875.55C638.44,-862.14 629.48,-845.82 622.14,-832.43"/>
<polygon fill="green" stroke="green" points="625.26,-830.84 617.38,-823.76 619.12,-834.21 625.26,-830.84"/>
<text xml:space="preserve" text-anchor="middle" x="641.45" y="-844.35" font-family="Helvetica,sans-Serif" font-size="9.00">Evet</text>
</g>
<!-- PIN_Input&#45;&gt;PIN_LOOP -->
<g id="edge5" class="edge">
<title>PIN_Input-&gt;PIN_LOOP</title>
<path fill="none" stroke="black" d="M707.06,-971.25C700.33,-961.55 691.67,-949.08 683.63,-937.49"/>
<polygon fill="black" stroke="black" points="686.51,-935.5 677.93,-929.28 680.76,-939.49 686.51,-935.5"/>
</g>
<!-- PIN_Incorrect&#45;&gt;PIN_Input -->
<g id="edge8" class="edge">
<title>PIN_Incorrect-&gt;PIN_Input</title>
<path fill="none" stroke="black" d="M777.21,-824.15C774.22,-849.28 767,-896.73 752,-934.45 748.31,-943.75 743.07,-953.25 737.85,-961.65"/>
<polygon fill="black" stroke="black" points="734.95,-959.7 732.43,-969.99 740.82,-963.51 734.95,-959.7"/>
<text xml:space="preserve" text-anchor="middle" x="796.7" y="-899.75" font-family="Helvetica,sans-Serif" font-size="9.00">Hak kaldıysa</text>
</g>
<!-- CardBlock -->
<g id="node8" class="node">
<title>CardBlock</title>
<polygon fill="none" stroke="red" points="844.39,-686.85 713.61,-686.85 713.61,-650.85 844.39,-650.85 844.39,-686.85"/>
<text xml:space="preserve" text-anchor="middle" x="779" y="-671.85" font-family="Helvetica,sans-Serif" font-size="10.00">3 başarısız -&gt; Kart bloke</text>
<text xml:space="preserve" text-anchor="middle" x="779" y="-659.85" font-family="Helvetica,sans-Serif" font-size="10.00">İşlem sonlandır</text>
</g>
<!-- PIN_Incorrect&#45;&gt;CardBlock -->
<g id="edge9" class="edge">
<title>PIN_Incorrect-&gt;CardBlock</title>
<path fill="none" stroke="red" d="M779,-787.31C779,-764.86 779,-725.45 779,-698.52"/>
<polygon fill="red" stroke="red" points="782.5,-698.65 779,-688.65 775.5,-698.65 782.5,-698.65"/>
<text xml:space="preserve" text-anchor="middle" x="795.26" y="-761.55" font-family="Helvetica,sans-Serif" font-size="9.00">Hak bitti</text>
</g>
<!-- End -->
<g id="node19" class="node">
<title>End</title>
<ellipse fill="none" stroke="black" cx="699" cy="-22.63" rx="43.54" ry="22.63"/>
<text xml:space="preserve" text-anchor="middle" x="699" y="-25.63" font-family="Helvetica,sans-Serif" font-size="10.00">SON</text>
<text xml:space="preserve" text-anchor="middle" x="699" y="-13.63" font-family="Helvetica,sans-Serif" font-size="10.00">Kartını al</text>
</g>
<!-- CardBlock&#45;&gt;End -->
<g id="edge10" class="edge">
<title>CardBlock-&gt;End</title>
<path fill="none" stroke="black" d="M773,-650.53C767.11,-631.96 759,-601.48 759,-574.45 759,-574.45 759,-574.45 759,-113.05 759,-89.17 744.06,-66.86 729.09,-50.49"/>
<polygon fill="black" stroke="black" points="731.87,-48.33 722.4,-43.59 726.85,-53.2 731.87,-48.33"/>
</g>
<!-- GetAmount -->
<g id="node10" class="node">
<title>GetAmount</title>
<polygon fill="none" stroke="black" points="407.51,-740.85 286.49,-740.85 286.49,-704.85 407.51,-704.85 407.51,-740.85"/>
<text xml:space="preserve" text-anchor="middle" x="347" y="-719.85" font-family="Helvetica,sans-Serif" font-size="10.00">Tutar gir (20 TL katları)</text>
</g>
<!-- MainLoop&#45;&gt;GetAmount -->
<g id="edge11" class="edge">
<title>MainLoop-&gt;GetAmount</title>
<path fill="none" stroke="black" d="M566.17,-794.36C540.33,-787.79 506.57,-778.8 476.99,-769.65 453.02,-762.24 426.89,-753.22 404.37,-745.15"/>
<polygon fill="black" stroke="black" points="405.66,-741.89 395.06,-741.79 403.28,-748.48 405.66,-741.89"/>
<text xml:space="preserve" text-anchor="middle" x="486" y="-761.55" font-family="Helvetica,sans-Serif" font-size="9.00">Evet</text>
</g>
<!-- MainLoop&#45;&gt;End -->
<g id="edge12" class="edge">
<title>MainLoop-&gt;End</title>
<path fill="none" stroke="black" d="M638.55,-792.51C664.99,-779.75 699,-756.92 699,-723.85 699,-723.85 699,-723.85 699,-113.05 699,-94.56 699,-73.92 699,-57.14"/>
<polygon fill="black" stroke="black" points="702.5,-57.19 699,-47.19 695.5,-57.19 702.5,-57.19"/>
<text xml:space="preserve" text-anchor="middle" x="711" y="-405.15" font-family="Helvetica,sans-Serif" font-size="9.00">Hayır</text>
</g>
<!-- CancelCheck -->
<g id="node11" class="node">
<title>CancelCheck</title>
<polygon fill="none" stroke="black" points="101,-632.85 52.89,-614.85 101,-596.85 149.11,-614.85 101,-632.85"/>
<text xml:space="preserve" text-anchor="middle" x="101" y="-611.85" font-family="Helvetica,sans-Serif" font-size="10.00">İptal mi?</text>
</g>
<!-- GetAmount&#45;&gt;CancelCheck -->
<g id="edge13" class="edge">
<title>GetAmount-&gt;CancelCheck</title>
<path fill="none" stroke="black" d="M306.65,-704.47C258.15,-683.57 177.73,-648.92 133.19,-629.72"/>
<polygon fill="black" stroke="black" points="134.63,-626.54 124.06,-625.79 131.86,-632.96 134.63,-626.54"/>
</g>
<!-- AmountPositive -->
<g id="node12" class="node">
<title>AmountPositive</title>
<polygon fill="none" stroke="black" points="101,-550.05 48.39,-532.05 101,-514.05 153.61,-532.05 101,-550.05"/>
<text xml:space="preserve" text-anchor="middle" x="101" y="-529.05" font-family="Helvetica,sans-Serif" font-size="10.00">Tutar &gt; 0?</text>
</g>
<!-- CancelCheck&#45;&gt;AmountPositive -->
<g id="edge15" class="edge">
<title>CancelCheck-&gt;AmountPositive</title>
<path fill="none" stroke="black" d="M101,-596.32C101,-586.26 101,-573.38 101,-561.88"/>
<polygon fill="black" stroke="black" points="104.5,-562.07 101,-552.07 97.5,-562.07 104.5,-562.07"/>
<text xml:space="preserve" text-anchor="middle" x="113" y="-570.75" font-family="Helvetica,sans-Serif" font-size="9.00">Hayır</text>
</g>
<!-- Cancelled -->
<g id="node18" class="node">
<title>Cancelled</title>
<polygon fill="none" stroke="orange" points="205.24,-132.05 114.76,-132.05 114.76,-96.05 205.24,-96.05 205.24,-132.05"/>
<text xml:space="preserve" text-anchor="middle" x="160" y="-111.05" font-family="Helvetica,sans-Serif" font-size="10.00">İşlem iptal edildi</text>
</g>
<!-- CancelCheck&#45;&gt;Cancelled -->
<g id="edge14" class="edge">
<title>CancelCheck-&gt;Cancelled</title>
<path fill="none" stroke="black" d="M75.51,-605.94C45.59,-594.88 0,-571.68 0,-533.05 0,-533.05 0,-533.05 0,-199.85 0,-151.64 57.42,-130.76 103.46,-121.77"/>
<polygon fill="black" stroke="black" points="103.86,-125.25 113.09,-120.04 102.63,-118.36 103.86,-125.25"/>
<text xml:space="preserve" text-anchor="middle" x="9" y="-363.75" font-family="Helvetica,sans-Serif" font-size="9.00">Evet</text>
</g>
<!-- MultipleOf20 -->
<g id="node13" class="node">
<title>MultipleOf20</title>
<polygon fill="none" stroke="black" points="160,-467.25 74.34,-449.25 160,-431.25 245.66,-449.25 160,-467.25"/>
<text xml:space="preserve" text-anchor="middle" x="160" y="-446.25" font-family="Helvetica,sans-Serif" font-size="10.00">20 TL'nin katı mı?</text>
</g>
<!-- AmountPositive&#45;&gt;MultipleOf20 -->
<g id="edge17" class="edge">
<title>AmountPositive-&gt;MultipleOf20</title>
<path fill="none" stroke="black" d="M111.01,-517.35C119.56,-505.64 132.06,-488.52 142.29,-474.51"/>
<polygon fill="black" stroke="black" points="144.97,-476.77 148.04,-466.63 139.32,-472.64 144.97,-476.77"/>
<text xml:space="preserve" text-anchor="middle" x="143.04" y="-487.95" font-family="Helvetica,sans-Serif" font-size="9.00">Evet</text>
</g>
<!-- AmountPositive&#45;&gt;Cancelled -->
<g id="edge18" class="edge">
<title>AmountPositive-&gt;Cancelled</title>
<path fill="none" stroke="black" d="M85.68,-518.82C69.41,-504.34 46,-478.59 46,-450.25 46,-450.25 46,-450.25 46,-199.85 46,-168 75.01,-146.7 103.76,-133.42"/>
<polygon fill="black" stroke="black" points="105.1,-136.66 112.9,-129.48 102.33,-130.23 105.1,-136.66"/>
<text xml:space="preserve" text-anchor="middle" x="58" y="-322.35" font-family="Helvetica,sans-Serif" font-size="9.00">Hayır</text>
</g>
<!-- DailyLimitCheck -->
<g id="node14" class="node">
<title>DailyLimitCheck</title>
<polygon fill="none" stroke="black" points="232,-384.45 120.1,-366.45 232,-348.45 343.9,-366.45 232,-384.45"/>
<text xml:space="preserve" text-anchor="middle" x="232" y="-363.45" font-family="Helvetica,sans-Serif" font-size="10.00">Günlük limit aşılıyor mu?</text>
</g>
<!-- MultipleOf20&#45;&gt;DailyLimitCheck -->
<g id="edge19" class="edge">
<title>MultipleOf20-&gt;DailyLimitCheck</title>
<path fill="none" stroke="black" d="M172.87,-433.81C183.42,-421.97 198.57,-404.97 210.89,-391.14"/>
<polygon fill="black" stroke="black" points="213.46,-393.52 217.5,-383.73 208.23,-388.87 213.46,-393.52"/>
<text xml:space="preserve" text-anchor="middle" x="209.32" y="-405.15" font-family="Helvetica,sans-Serif" font-size="9.00">Evet</text>
</g>
<!-- MultipleOf20&#45;&gt;Cancelled -->
<g id="edge20" class="edge">
<title>MultipleOf20-&gt;Cancelled</title>
<path fill="none" stroke="black" d="M138.86,-435.33C118.9,-421.32 92,-396.97 92,-367.45 92,-367.45 92,-367.45 92,-199.85 92,-175.91 108.7,-154.87 125.55,-139.74"/>
<polygon fill="black" stroke="black" points="127.74,-142.47 133.13,-133.35 123.23,-137.12 127.74,-142.47"/>
<text xml:space="preserve" text-anchor="middle" x="104" y="-280.95" font-family="Helvetica,sans-Serif" font-size="9.00">Hayır</text>
</g>
<!-- BalanceCheck -->
<g id="node15" class="node">
<title>BalanceCheck</title>
<polygon fill="none" stroke="black" points="252,-301.65 171.75,-283.65 252,-265.65 332.25,-283.65 252,-301.65"/>
<text xml:space="preserve" text-anchor="middle" x="252" y="-280.65" font-family="Helvetica,sans-Serif" font-size="10.00">Bakiye yeterli mi?</text>
</g>
<!-- DailyLimitCheck&#45;&gt;BalanceCheck -->
<g id="edge21" class="edge">
<title>DailyLimitCheck-&gt;BalanceCheck</title>
<path fill="none" stroke="black" d="M236.14,-348.71C238.76,-338.13 242.21,-324.21 245.22,-312.05"/>
<polygon fill="black" stroke="black" points="248.56,-313.12 247.57,-302.57 241.77,-311.43 248.56,-313.12"/>
<text xml:space="preserve" text-anchor="middle" x="274.95" y="-322.35" font-family="Helvetica,sans-Serif" font-size="9.00">Limit aşılmıyor</text>
</g>
<!-- DailyLimitCheck&#45;&gt;Cancelled -->
<g id="edge22" class="edge">
<title>DailyLimitCheck-&gt;Cancelled</title>
<path fill="none" stroke="black" d="M211.89,-351.32C196.55,-339.6 175.92,-321.67 163,-301.65 149.28,-280.4 149.04,-272.63 144.99,-247.65 139.16,-211.8 146.11,-170.12 152.36,-143.21"/>
<polygon fill="black" stroke="black" points="155.69,-144.31 154.69,-133.76 148.9,-142.63 155.69,-144.31"/>
<text xml:space="preserve" text-anchor="middle" x="172.99" y="-239.55" font-family="Helvetica,sans-Serif" font-size="9.00">Limit aşılıyor</text>
</g>
<!-- Confirm -->
<g id="node16" class="node">
<title>Confirm</title>
<polygon fill="none" stroke="black" points="387,-218.85 293.04,-200.85 387,-182.85 480.96,-200.85 387,-218.85"/>
<text xml:space="preserve" text-anchor="middle" x="387" y="-197.85" font-family="Helvetica,sans-Serif" font-size="10.00">Onaylıyor musunuz?</text>
</g>
<!-- BalanceCheck&#45;&gt;Confirm -->
<g id="edge23" class="edge">
<title>BalanceCheck-&gt;Confirm</title>
<path fill="none" stroke="black" d="M273.09,-270.03C295.12,-256.84 329.94,-236.01 355.28,-220.84"/>
<polygon fill="black" stroke="black" points="357.08,-223.84 363.86,-215.7 353.48,-217.84 357.08,-223.84"/>
<text xml:space="preserve" text-anchor="middle" x="336.59" y="-239.55" font-family="Helvetica,sans-Serif" font-size="9.00">Evet</text>
</g>
<!-- BalanceCheck&#45;&gt;Cancelled -->
<g id="edge24" class="edge">
<title>BalanceCheck-&gt;Cancelled</title>
<path fill="none" stroke="black" d="M235.55,-269.04C222.08,-257.09 203.45,-238.57 191.98,-218.85 178.22,-195.2 169.78,-165.01 165.06,-143.29"/>
<polygon fill="black" stroke="black" points="168.52,-142.78 163.1,-133.68 161.66,-144.17 168.52,-142.78"/>
<text xml:space="preserve" text-anchor="middle" x="237.99" y="-198.15" font-family="Helvetica,sans-Serif" font-size="9.00">Hayır (yetersiz bakiye)</text>
</g>
<!-- Dispense -->
<g id="node17" class="node">
<title>Dispense</title>
<polygon fill="#e0ffe0" stroke="black" points="569.24,-136.05 478.76,-136.05 478.76,-92.05 569.24,-92.05 569.24,-136.05"/>
<text xml:space="preserve" text-anchor="middle" x="524" y="-123.05" font-family="Helvetica,sans-Serif" font-size="10.00">Para ver</text>
<text xml:space="preserve" text-anchor="middle" x="524" y="-111.05" font-family="Helvetica,sans-Serif" font-size="10.00">Hesabı güncelle</text>
<text xml:space="preserve" text-anchor="middle" x="524" y="-99.05" font-family="Helvetica,sans-Serif" font-size="10.00">Fiş yazdır</text>
</g>
<!-- Confirm&#45;&gt;Dispense -->
<g id="edge25" class="edge">
<title>Confirm-&gt;Dispense</title>
<path fill="none" stroke="black" d="M408.41,-186.6C427.46,-174.81 455.92,-157.19 479.84,-142.39"/>
<polygon fill="black" stroke="black" points="481.48,-145.49 488.14,-137.25 477.8,-139.54 481.48,-145.49"/>
<text xml:space="preserve" text-anchor="middle" x="468.61" y="-156.75" font-family="Helvetica,sans-Serif" font-size="9.00">Evet</text>
</g>
<!-- Confirm&#45;&gt;Cancelled -->
<g id="edge26" class="edge">
<title>Confirm-&gt;Cancelled</title>
<path fill="none" stroke="black" d="M356.39,-188.42C320.5,-175.01 260.3,-152.52 215.99,-135.97"/>
<polygon fill="black" stroke="black" points="217.39,-132.76 206.8,-132.54 214.94,-139.32 217.39,-132.76"/>
<text xml:space="preserve" text-anchor="middle" x="299.09" y="-156.75" font-family="Helvetica,sans-Serif" font-size="9.00">Hayır</text>
</g>
<!-- Dispense&#45;&gt;MainLoop -->
<g id="edge27" class="edge">
<title>Dispense-&gt;MainLoop</title>
<path fill="none" stroke="black" d="M569.73,-136.43C592.82,-150.68 616,-171.94 616,-199.85 616,-723.85 616,-723.85 616,-723.85 616,-741.49 614.09,-761.19 612.14,-776.72"/>
<polygon fill="black" stroke="black" points="608.73,-775.8 610.87,-786.18 615.66,-776.73 608.73,-775.8"/>
<text xml:space="preserve" text-anchor="middle" x="643.26" y="-446.55" font-family="Helvetica,sans-Serif" font-size="9.00">Başka işlem?</text>
</g>
<!-- Cancelled&#45;&gt;MainLoop -->
<g id="edge16" class="edge">
<title>Cancelled-&gt;MainLoop</title>
<path fill="none" stroke="black" d="M205.47,-115.68C283.18,-117.55 437.47,-124.92 482,-154.05 501.77,-166.99 509,-176.23 509,-199.85 509,-723.85 509,-723.85 509,-723.85 509,-754.31 537.47,-775.34 563.87,-788.29"/>
<polygon fill="black" stroke="black" points="562.28,-791.41 572.83,-792.39 565.2,-785.05 562.28,-791.41"/>
<text xml:space="preserve" text-anchor="middle" x="544.26" y="-446.55" font-family="Helvetica,sans-Serif" font-size="9.00">Yeni işlem? (E/H)</text>
</g>
<!-- Cancelled&#45;&gt;End -->
<g id="edge28" class="edge">
<title>Cancelled-&gt;End</title>
<path fill="none" stroke="black" d="M205.49,-105.51C304.93,-89.01 541.19,-49.81 646.62,-32.32"/>
<polygon fill="black" stroke="black" points="647.13,-35.78 656.42,-30.69 645.98,-28.88 647.13,-35.78"/>
<text xml:space="preserve" text-anchor="middle" x="461.17" y="-65.95" font-family="Helvetica,sans-Serif" font-size="9.00">Kartı al</text>
</g>
</g>
</svg>