<svg xmlns="http://www.w3.org/2000/svg" xmlns:xlink="http://www.w3.org/1999/xlink" width="920pt" height="1519pt" viewBox="0.00 0.00 920.00 1519.00">
<g id="graph0" class="graph" transform="scale(1 1) rotate(0) translate(4 1515.4)">
<title>EticaretAkis</title>
<polygon fill="white" stroke="none" points="-4,4 -4,-1515.4 916.38,-1515.4 916.38,4 -4,4"/>
<!-- start -->
<g id="node1" class="node">
<title>start</title>
<ellipse fill="none" stroke="black" cx="113.51" cy="-1493.4" rx="41.1" ry="18"/>
<text xml:space="preserve" text-anchor="middle" x="113.51" y="-1489.2" font-family="Arial" font-size="14.00">BAŞLA</text>
</g>
<!-- login -->
<g id="node2" class="node">
<title>login</title>
<polygon fill="none" stroke="black" points="194.26,-1438.4 32.77,-1438.4 32.77,-1402.4 194.26,-1402.4 194.26,-1438.4"/>
<text xml:space="preserve" text-anchor="middle" x="113.51" y="-1416.2" font-family="Arial" font-size="14.00">Kullanıcı Girişi (3 hak)</text>
</g>
<!-- start&#45;&gt;login -->
<g id="edge1" class="edge">
<title>start-&gt;login</title>
<path fill="none" stroke="black" d="M113.51,-1475.21C113.51,-1467.63 113.51,-1458.5 113.51,-1449.94"/>
<polygon fill="black" stroke="black" points="117.01,-1449.94 113.51,-1439.94 110.01,-1449.94 117.01,-1449.94"/>
</g>
<!-- login_check -->
<g id="node3" class="node">
<title>login_check</title>
<polygon fill="none" stroke="black" points="113.51,-1365.4 0,-1347.4 113.51,-1329.4 227.03,-1347.4 113.51,-1365.4"/>
<text xml:space="preserve" text-anchor="middle" x="113.51" y="-1343.2" font-family="Arial" font-size="14.00">Giriş doğru mu?</text>
</g>
<!-- login&#45;&gt;login_check -->
<g id="edge2" class="edge">
<title>login-&gt;login_check</title>
<path fill="none" stroke="black" d="M113.51,-1402.21C113.51,-1394.63 113.51,-1385.5 113.51,-1376.94"/>
<polygon fill="black" stroke="black" points="117.01,-1376.94 113.51,-1366.94 110.01,-1376.94 117.01,-1376.94"/>
</g>
<!-- start_cart -->
<g id="node4" class="node">
<title>start_cart</title>
<polygon fill="none" stroke="black" points="310.6,-1276.6 214.43,-1276.6 214.43,-1240.6 310.6,-1240.6 310.6,-1276.6"/>
<text xml:space="preserve" text-anchor="middle" x="262.51" y="-1254.4" font-family="Arial" font-size="14.00">Sepet Başlat</text>
</g>
<!-- login_check&#45;&gt;start_cart -->
<g id="edge3" class="edge">
<title>login_check-&gt;start_cart</title>
<path fill="none" stroke="black" d="M137.12,-1332.65C160.14,-1319.24 195.58,-1298.59 222.92,-1282.66"/>
<polygon fill="black" stroke="black" points="224.4,-1285.85 231.28,-1277.79 220.88,-1279.8 224.4,-1285.85"/>
<text xml:space="preserve" text-anchor="middle" x="219.24" y="-1298.8" font-family="Times,serif" font-size="14.00">EVET</text>
</g>
<!-- end -->
<g id="node25" class="node">
<title>end</title>
<ellipse fill="none" stroke="black" cx="477.51" cy="-18" rx="41.08" ry="18"/>
<text xml:space="preserve" text-anchor="middle" x="477.51" y="-13.8" font-family="Arial" font-size="14.00">BİTİR</text>
</g>
<!-- login_check&#45;&gt;end -->
<g id="edge4" class="edge">
<title>login_check-&gt;end</title>
<path fill="none" stroke="black" d="M108.63,-1329.93C103.92,-1312.59 97.51,-1284.42 97.51,-1259.6 97.51,-1259.6 97.51,-1259.6 97.51,-90 97.51,-24.18 320.6,-17.54 424.91,-18.03"/>
<polygon fill="black" stroke="black" points="424.58,-21.53 434.61,-18.11 424.64,-14.53 424.58,-21.53"/>
<text xml:space="preserve" text-anchor="middle" x="154.48" y="-680.2" font-family="Times,serif" font-size="14.00">HAYIR (3 hak bitti)</text>
</g>
<!-- add_loop -->
<g id="node5" class="node">
<title>add_loop</title>
<polygon fill="none" stroke="black" points="411.76,-1203.6 257.27,-1203.6 257.27,-1167.6 411.76,-1167.6 411.76,-1203.6"/>
<text xml:space="preserve" text-anchor="middle" x="334.51" y="-1181.4" font-family="Arial" font-size="14.00">Ürün Ekleme Döngüsü</text>
</g>
<!-- start_cart&#45;&gt;add_loop -->
<g id="edge5" class="edge">
<title>start_cart-&gt;add_loop</title>
<path fill="none" stroke="black" d="M279.94,-1240.41C288.63,-1231.84 299.31,-1221.31 308.91,-1211.84"/>
<polygon fill="black" stroke="black" points="311.26,-1214.45 315.92,-1204.94 306.34,-1209.47 311.26,-1214.45"/>
</g>
<!-- stok_check -->
<g id="node6" class="node">
<title>stok_check</title>
<polygon fill="none" stroke="black" points="334.51,-1130.6 225.55,-1112.6 334.51,-1094.6 443.47,-1112.6 334.51,-1130.6"/>
<text xml:space="preserve" text-anchor="middle" x="334.51" y="-1108.4" font-family="Arial" font-size="14.00">Stok yeterli mi?</text>
</g>
<!-- add_loop&#45;&gt;stok_check -->
<g id="edge6" class="edge">
<title>add_loop-&gt;stok_check</title>
<path fill="none" stroke="black" d="M334.51,-1167.41C334.51,-1159.83 334.51,-1150.7 334.51,-1142.14"/>
<polygon fill="black" stroke="black" points="338.01,-1142.14 334.51,-1132.14 331.01,-1142.14 338.01,-1142.14"/>
</g>
<!-- add_cart -->
<g id="node7" class="node">
<title>add_cart</title>
<polygon fill="none" stroke="black" points="324.72,-1041.8 152.31,-1041.8 152.31,-1005.8 324.72,-1005.8 324.72,-1041.8"/>
<text xml:space="preserve" text-anchor="middle" x="238.51" y="-1019.6" font-family="Arial" font-size="14.00">Sepete Ekle / Rezerve Et</text>
</g>
<!-- stok_check&#45;&gt;add_cart -->
<g id="edge7" class="edge">
<title>stok_check-&gt;add_cart</title>
<path fill="none" stroke="black" d="M318.23,-1096.88C304.02,-1084.02 283.09,-1065.1 266.24,-1049.87"/>
<polygon fill="black" stroke="black" points="268.75,-1047.42 258.98,-1043.31 264.05,-1052.61 268.75,-1047.42"/>
<text xml:space="preserve" text-anchor="middle" x="313" y="-1064" font-family="Times,serif" font-size="14.00">EVET</text>
</g>
<!-- stok_insuff -->
<g id="node8" class="node">
<title>stok_insuff</title>
<polygon fill="none" stroke="black" points="488.47,-1041.8 342.56,-1041.8 342.56,-1005.8 488.47,-1005.8 488.47,-1041.8"/>
<text xml:space="preserve" text-anchor="middle" x="415.51" y="-1019.6" font-family="Arial" font-size="14.00">Yetersiz stok - Uyarı</text>
</g>
<!-- stok_check&#45;&gt;stok_insuff -->
<g id="edge8" class="edge">
<title>stok_check-&gt;stok_insuff</title>
<path fill="none" stroke="black" d="M348.62,-1096.48C360.44,-1083.81 377.58,-1065.45 391.55,-1050.48"/>
<polygon fill="black" stroke="black" points="394.05,-1052.94 398.31,-1043.24 388.93,-1048.16 394.05,-1052.94"/>
<text xml:space="preserve" text-anchor="middle" x="404.43" y="-1064" font-family="Times,serif" font-size="14.00">HAYIR</text>
</g>
<!-- continue_check -->
<g id="node9" class="node">
<title>continue_check</title>
<polygon fill="none" stroke="black" points="429.51,-968.8 302.34,-950.8 429.51,-932.8 556.69,-950.8 429.51,-968.8"/>
<text xml:space="preserve" text-anchor="middle" x="429.51" y="-946.6" font-family="Arial" font-size="14.00">Devam edilsin mi?</text>
</g>
<!-- add_cart&#45;&gt;continue_check -->
<g id="edge10" class="edge">
<title>add_cart-&gt;continue_check</title>
<path fill="none" stroke="black" d="M285.24,-1005.43C315.63,-994.13 355.03,-979.49 384.98,-968.35"/>
<polygon fill="black" stroke="black" points="385.98,-971.72 394.13,-964.95 383.54,-965.16 385.98,-971.72"/>
</g>
<!-- stok_insuff&#45;&gt;continue_check -->
<g id="edge9" class="edge">
<title>stok_insuff-&gt;continue_check</title>
<path fill="none" stroke="black" d="M418.9,-1005.61C420.42,-997.94 422.24,-988.69 423.94,-980.04"/>
<polygon fill="black" stroke="black" points="427.36,-980.8 425.86,-970.31 420.49,-979.45 427.36,-980.8"/>
</g>
<!-- continue_check&#45;&gt;add_loop -->
<g id="edge11" class="edge">
<title>continue_check-&gt;add_loop</title>
<path fill="none" stroke="black" d="M456.52,-965.34C471.59,-974.5 488.99,-988.15 497.51,-1005.8 504.47,-1020.21 501.23,-1026.24 497.51,-1041.8 487.23,-1084.83 484.42,-1099.94 452.51,-1130.6 438.46,-1144.11 420.43,-1154.65 402.71,-1162.69"/>
<polygon fill="black" stroke="black" points="401.55,-1159.38 393.74,-1166.55 404.31,-1165.82 401.55,-1159.38"/>
<text xml:space="preserve" text-anchor="middle" x="511.05" y="-1064" font-family="Times,serif" font-size="14.00">EVET</text>
</g>
<!-- discount_q -->
<g id="node10" class="node">
<title>discount_q</title>
<polygon fill="none" stroke="black" points="436.51,-880 289.6,-862 436.51,-844 583.42,-862 436.51,-880"/>
<text xml:space="preserve" text-anchor="middle" x="436.51" y="-857.8" font-family="Arial" font-size="14.00">İndirim kodu var mı?</text>
</g>
<!-- continue_check&#45;&gt;discount_q -->
<g id="edge12" class="edge">
<title>continue_check-&gt;discount_q</title>
<path fill="none" stroke="black" d="M430.9,-932.65C431.85,-920.88 433.13,-904.99 434.23,-891.35"/>
<polygon fill="black" stroke="black" points="437.7,-891.87 435.01,-881.62 430.72,-891.31 437.7,-891.87"/>
<text xml:space="preserve" text-anchor="middle" x="455.81" y="-902.2" font-family="Times,serif" font-size="14.00">HAYIR</text>
</g>
<!-- discount_check -->
<g id="node11" class="node">
<title>discount_check</title>
<polygon fill="none" stroke="black" points="609.51,-791.2 499.02,-773.2 609.51,-755.2 720.01,-773.2 609.51,-791.2"/>
<text xml:space="preserve" text-anchor="middle" x="609.51" y="-769" font-family="Arial" font-size="14.00">Kod geçerli mi?</text>
</g>
<!-- discount_q&#45;&gt;discount_check -->
<g id="edge13" class="edge">
<title>discount_q-&gt;discount_check</title>
<path fill="none" stroke="black" d="M464.31,-847.05C493.87,-832.22 540.75,-808.7 573.21,-792.41"/>
<polygon fill="black" stroke="black" points="574.48,-795.69 581.85,-788.08 571.34,-789.44 574.48,-795.69"/>
<text xml:space="preserve" text-anchor="middle" x="556.39" y="-813.4" font-family="Times,serif" font-size="14.00">EVET</text>
</g>
<!-- calc_shipping -->
<g id="node12" class="node">
<title>calc_shipping</title>
<polygon fill="none" stroke="black" points="588.78,-702.4 378.25,-702.4 378.25,-666.4 588.78,-666.4 588.78,-702.4"/>
<text xml:space="preserve" text-anchor="middle" x="483.51" y="-680.2" font-family="Arial" font-size="14.00">Kargo Hesapla (ağırlık, adres)</text>
</g>
<!-- discount_q&#45;&gt;calc_shipping -->
<g id="edge14" class="edge">
<title>discount_q-&gt;calc_shipping</title>
<path fill="none" stroke="black" d="M436.01,-843.75C435.86,-822.47 437.13,-785.41 446.18,-755.2 450.65,-740.29 458.48,-724.91 465.81,-712.39"/>
<polygon fill="black" stroke="black" points="468.76,-714.27 470.98,-703.91 462.78,-710.63 468.76,-714.27"/>
<text xml:space="preserve" text-anchor="middle" x="468.35" y="-769" font-family="Times,serif" font-size="14.00">HAYIR</text>
</g>
<!-- discount_check&#45;&gt;calc_shipping -->
<g id="edge15" class="edge">
<title>discount_check-&gt;calc_shipping</title>
<path fill="none" stroke="black" d="M554.07,-763.81C523.88,-757.99 490.86,-749.13 481.76,-737.2 476.71,-730.59 475.54,-722 476.1,-713.72"/>
<polygon fill="black" stroke="black" points="479.54,-714.37 477.59,-703.96 472.62,-713.31 479.54,-714.37"/>
<text xml:space="preserve" text-anchor="middle" x="534.63" y="-724.6" font-family="Times,serif" font-size="14.00">GEÇERLİ / EVET</text>
</g>
<!-- discount_check&#45;&gt;calc_shipping -->
<g id="edge16" class="edge">
<title>discount_check-&gt;calc_shipping</title>
<path fill="none" stroke="black" d="M606.24,-755.66C603.19,-744.31 597.55,-729.69 587.51,-720.4 582.38,-715.64 576.57,-711.53 570.4,-707.98"/>
<polygon fill="black" stroke="black" points="572.26,-705 561.77,-703.53 569.06,-711.22 572.26,-705"/>
<text xml:space="preserve" text-anchor="middle" x="660.1" y="-724.6" font-family="Times,serif" font-size="14.00">GEÇERSİZ / HAYIR</text>
</g>
<!-- show_total -->
<g id="node13" class="node">
<title>show_total</title>
<polygon fill="none" stroke="black" points="541.14,-629.4 427.89,-629.4 427.89,-593.4 541.14,-593.4 541.14,-629.4"/>
<text xml:space="preserve" text-anchor="middle" x="484.51" y="-607.2" font-family="Arial" font-size="14.00">Toplamı göster</text>
</g>
<!-- calc_shipping&#45;&gt;show_total -->
<g id="edge17" class="edge">
<title>calc_shipping-&gt;show_total</title>
<path fill="none" stroke="black" d="M483.76,-666.21C483.86,-658.63 483.99,-649.5 484.11,-640.94"/>
<polygon fill="black" stroke="black" points="487.61,-640.99 484.25,-630.94 480.61,-640.89 487.61,-640.99"/>
</g>
<!-- payment_choice -->
<g id="node14" class="node">
<title>payment_choice</title>
<polygon fill="none" stroke="black" points="484.51,-556.4 332.3,-538.4 484.51,-520.4 636.73,-538.4 484.51,-556.4"/>
<text xml:space="preserve" text-anchor="middle" x="484.51" y="-534.2" font-family="Arial" font-size="14.00">Ödeme yöntemi seçimi</text>
</g>
<!-- show_total&#45;&gt;payment_choice -->
<g id="edge18" class="edge">
<title>show_total-&gt;payment_choice</title>
<path fill="none" stroke="black" d="M484.51,-593.21C484.51,-585.63 484.51,-576.5 484.51,-567.94"/>
<polygon fill="black" stroke="black" points="488.01,-567.94 484.51,-557.94 481.01,-567.94 488.01,-567.94"/>
</g>
<!-- pay_cc -->
<g id="node15" class="node">
<title>pay_cc</title>
<polygon fill="none" stroke="black" points="561.65,-467.6 413.38,-467.6 413.38,-431.6 561.65,-431.6 561.65,-467.6"/>
<text xml:space="preserve" text-anchor="middle" x="487.51" y="-445.4" font-family="Arial" font-size="14.00">Kredi Kartı bilgileri al</text>
</g>
<!-- payment_choice&#45;&gt;pay_cc -->
<g id="edge19" class="edge">
<title>payment_choice-&gt;pay_cc</title>
<path fill="none" stroke="black" d="M485.11,-520.25C485.51,-508.56 486.06,-492.79 486.53,-479.22"/>
<polygon fill="black" stroke="black" points="490.01,-479.64 486.86,-469.52 483.02,-479.4 490.01,-479.64"/>
<text xml:space="preserve" text-anchor="middle" x="518.16" y="-489.8" font-family="Times,serif" font-size="14.00">KrediKartı</text>
</g>
<!-- pay_bank -->
<g id="node18" class="node">
<title>pay_bank</title>
<polygon fill="none" stroke="black" points="263.6,-270.8 125.42,-270.8 125.42,-234.8 263.6,-234.8 263.6,-270.8"/>
<text xml:space="preserve" text-anchor="middle" x="194.51" y="-248.6" font-family="Arial" font-size="14.00">Havale: Onay bekle</text>
</g>
<!-- payment_choice&#45;&gt;pay_bank -->
<g id="edge20" class="edge">
<title>payment_choice-&gt;pay_bank</title>
<path fill="none" stroke="black" d="M466.37,-522.26C449.92,-508.37 425.17,-487.07 404.51,-467.6 334.85,-401.93 256.84,-320.21 218.47,-279.44"/>
<polygon fill="black" stroke="black" points="221.12,-277.15 211.72,-272.25 216.02,-281.94 221.12,-277.15"/>
<text xml:space="preserve" text-anchor="middle" x="367.55" y="-401" font-family="Times,serif" font-size="14.00">Havale</text>
</g>
<!-- pay_cod -->
<g id="node19" class="node">
<title>pay_cod</title>
<polygon fill="none" stroke="black" points="809.78,-467.6 655.25,-467.6 655.25,-431.6 809.78,-431.6 809.78,-467.6"/>
<text xml:space="preserve" text-anchor="middle" x="732.51" y="-445.4" font-family="Arial" font-size="14.00">Kapıda ödeme seçildi</text>
</g>
<!-- payment_choice&#45;&gt;pay_cod -->
<g id="edge21" class="edge">
<title>payment_choice-&gt;pay_cod</title>
<path fill="none" stroke="black" d="M521.64,-524.41C561.38,-510.5 625.04,-488.22 672.03,-471.77"/>
<polygon fill="black" stroke="black" points="672.98,-475.15 681.26,-468.54 670.67,-468.54 672.98,-475.15"/>
<text xml:space="preserve" text-anchor="middle" x="652.5" y="-489.8" font-family="Times,serif" font-size="14.00">Kapıda</text>
</g>
<!-- card_valid -->
<g id="node16" class="node">
<title>card_valid</title>
<polygon fill="none" stroke="black" points="487.51,-378.8 329.97,-360.8 487.51,-342.8 645.05,-360.8 487.51,-378.8"/>
<text xml:space="preserve" text-anchor="middle" x="487.51" y="-356.6" font-family="Arial" font-size="14.00">Kart bilgileri geçerli mi?</text>
</g>
<!-- pay_cc&#45;&gt;card_valid -->
<g id="edge22" class="edge">
<title>pay_cc-&gt;card_valid</title>
<path fill="none" stroke="black" d="M487.51,-431.45C487.51,-419.76 487.51,-403.99 487.51,-390.42"/>
<polygon fill="black" stroke="black" points="491.01,-390.72 487.51,-380.72 484.01,-390.72 491.01,-390.72"/>
</g>
<!-- gateway -->
<g id="node17" class="node">
<title>gateway</title>
<polygon fill="none" stroke="black" points="487.51,-270.8 281.36,-252.8 487.51,-234.8 693.67,-252.8 487.51,-270.8"/>
<text xml:space="preserve" text-anchor="middle" x="487.51" y="-248.6" font-family="Arial" font-size="14.00">Ödeme ağ geçidi onayladı mı?</text>
</g>
<!-- card_valid&#45;&gt;gateway -->
<g id="edge23" class="edge">
<title>card_valid-&gt;gateway</title>
<path fill="none" stroke="black" d="M487.51,-342.77C487.51,-326.56 487.51,-301.86 487.51,-282.59"/>
<polygon fill="black" stroke="black" points="491.01,-282.65 487.51,-272.65 484.01,-282.65 491.01,-282.65"/>
<text xml:space="preserve" text-anchor="middle" x="505.4" y="-302.6" font-family="Times,serif" font-size="14.00">EVET</text>
</g>
<!-- payment_failed -->
<g id="node21" class="node">
<title>payment_failed</title>
<polygon fill="none" stroke="black" points="646.05,-182 468.98,-182 468.98,-146 646.05,-146 646.05,-182"/>
<text xml:space="preserve" text-anchor="middle" x="557.51" y="-159.8" font-family="Arial" font-size="14.00">Ödeme/Doğrulama hatası</text>
</g>
<!-- card_valid&#45;&gt;payment_failed -->
<g id="edge24" class="edge">
<title>card_valid-&gt;payment_failed</title>
<path fill="none" stroke="black" d="M560.06,-350.62C609.29,-340.19 670.98,-317.99 702.51,-270.8 727.55,-233.34 678.07,-204.45 630.25,-186.4"/>
<polygon fill="black" stroke="black" points="631.48,-183.12 620.88,-183 629.09,-189.7 631.48,-183.12"/>
<text xml:space="preserve" text-anchor="middle" x="731.39" y="-248.6" font-family="Times,serif" font-size="14.00">HAYIR</text>
</g>
<!-- payment_success -->
<g id="node20" class="node">
<title>payment_success</title>
<polygon fill="none" stroke="black" points="403.09,-182 285.94,-182 285.94,-146 403.09,-146 403.09,-182"/>
<text xml:space="preserve" text-anchor="middle" x="344.51" y="-159.8" font-family="Arial" font-size="14.00">Ödeme başarılı</text>
</g>
<!-- gateway&#45;&gt;payment_success -->
<g id="edge25" class="edge">
<title>gateway-&gt;payment_success</title>
<path fill="none" stroke="black" d="M412.06,-240.92C395.7,-235.73 379.51,-228.07 366.75,-216.8 359.63,-210.51 354.72,-201.55 351.36,-192.84"/>
<polygon fill="black" stroke="black" points="354.77,-192.03 348.35,-183.61 348.12,-194.2 354.77,-192.03"/>
<text xml:space="preserve" text-anchor="middle" x="384.63" y="-204.2" font-family="Times,serif" font-size="14.00">EVET</text>
</g>
<!-- gateway&#45;&gt;payment_failed -->
<g id="edge26" class="edge">
<title>gateway-&gt;payment_failed</title>
<path fill="none" stroke="black" d="M513.61,-236.61C521.41,-231.13 529.48,-224.39 535.51,-216.8 541.11,-209.75 545.53,-201.07 548.89,-192.84"/>
<polygon fill="black" stroke="black" points="552.15,-194.11 552.31,-183.52 545.58,-191.7 552.15,-194.11"/>
<text xml:space="preserve" text-anchor="middle" x="567.34" y="-204.2" font-family="Times,serif" font-size="14.00">HAYIR</text>
</g>
<!-- pay_bank&#45;&gt;payment_success -->
<g id="edge27" class="edge">
<title>pay_bank-&gt;payment_success</title>
<path fill="none" stroke="black" d="M192.59,-234.35C192.35,-223.18 194.06,-209.13 202.4,-200 212.55,-188.89 243.73,-180.57 274.31,-174.83"/>
<polygon fill="black" stroke="black" points="274.79,-178.3 284.02,-173.1 273.56,-171.41 274.79,-178.3"/>
<text xml:space="preserve" text-anchor="middle" x="276.46" y="-204.2" font-family="Times,serif" font-size="14.00">Havale onaylandı / EVET</text>
</g>
<!-- pay_bank&#45;&gt;payment_failed -->
<g id="edge28" class="edge">
<title>pay_bank-&gt;payment_failed</title>
<path fill="none" stroke="black" d="M263.78,-236.41C266.73,-235.85 269.65,-235.31 272.51,-234.8 329.94,-224.58 349.53,-241.19 402.51,-216.8 412.74,-212.09 411.53,-205.28 421.47,-200 432.83,-193.96 445.28,-188.93 457.89,-184.74"/>
<polygon fill="black" stroke="black" points="458.56,-188.2 467.06,-181.87 456.47,-181.52 458.56,-188.2"/>
<text xml:space="preserve" text-anchor="middle" x="476.49" y="-204.2" font-family="Times,serif" font-size="14.00">Onay yok / HAYIR</text>
</g>
<!-- order_cod -->
<g id="node23" class="node">
<title>order_cod</title>
<polygon fill="none" stroke="black" points="912.38,-324.8 744.65,-324.8 744.65,-288.8 912.38,-288.8 912.38,-324.8"/>
<text xml:space="preserve" text-anchor="middle" x="828.51" y="-302.6" font-family="Arial" font-size="14.00">Sipariş oluştur (Kapıda)</text>
</g>
<!-- pay_cod&#45;&gt;order_cod -->
<g id="edge29" class="edge">
<title>pay_cod-&gt;order_cod</title>
<path fill="none" stroke="black" d="M744.29,-431.34C760.77,-407.16 790.87,-363.01 810.27,-334.56"/>
<polygon fill="black" stroke="black" points="813.05,-336.69 815.79,-326.46 807.27,-332.75 813.05,-336.69"/>
</g>
<!-- order_create -->
<g id="node22" class="node">
<title>order_create</title>
<polygon fill="none" stroke="black" points="455.22,-109 233.81,-109 233.81,-73 455.22,-73 455.22,-109"/>
<text xml:space="preserve" text-anchor="middle" x="344.51" y="-86.8" font-family="Arial" font-size="14.00">Sipariş oluştur ve stok kesinleştir</text>
</g>
<!-- payment_success&#45;&gt;order_create -->
<g id="edge30" class="edge">
<title>payment_success-&gt;order_create</title>
<path fill="none" stroke="black" d="M344.51,-145.81C344.51,-138.23 344.51,-129.1 344.51,-120.54"/>
<polygon fill="black" stroke="black" points="348.01,-120.54 344.51,-110.54 341.01,-120.54 348.01,-120.54"/>
</g>
<!-- rollback -->
<g id="node24" class="node">
<title>rollback</title>
<polygon fill="none" stroke="black" points="641.78,-109 473.25,-109 473.25,-73 641.78,-73 641.78,-109"/>
<text xml:space="preserve" text-anchor="middle" x="557.51" y="-86.8" font-family="Arial" font-size="14.00">Stok iade et, sipariş iptal</text>
</g>
<!-- payment_failed&#45;&gt;rollback -->
<g id="edge33" class="edge">
<title>payment_failed-&gt;rollback</title>
<path fill="none" stroke="black" d="M557.51,-145.81C557.51,-138.23 557.51,-129.1 557.51,-120.54"/>
<polygon fill="black" stroke="black" points="561.01,-120.54 557.51,-110.54 554.01,-120.54 561.01,-120.54"/>
</g>
<!-- order_create&#45;&gt;end -->
<g id="edge31" class="edge">
<title>order_create-&gt;end</title>
<path fill="none" stroke="black" d="M377.05,-72.63C396.83,-62.07 422.08,-48.59 442.32,-37.79"/>
<polygon fill="black" stroke="black" points="443.89,-40.92 451.06,-33.12 440.59,-34.74 443.89,-40.92"/>
</g>
<!-- order_cod&#45;&gt;end -->
<g id="edge32" class="edge">
<title>order_cod-&gt;end</title>
<path fill="none" stroke="black" d="M824.75,-288.48C820.91,-269.26 815.51,-237.26 815.51,-209.4 815.51,-209.4 815.51,-209.4 815.51,-90 815.51,-32.44 625.4,-21.28 530.34,-19.3"/>
<polygon fill="black" stroke="black" points="530.53,-15.8 520.47,-19.13 530.41,-22.8 530.53,-15.8"/>
</g>
<!-- rollback&#45;&gt;end -->
<g id="edge34" class="edge">
<title>rollback-&gt;end</title>
<path fill="none" stroke="black" d="M538.15,-72.81C527.79,-63.62 514.88,-52.16 503.64,-42.19"/>
<polygon fill="black" stroke="black" points="506,-39.6 496.2,-35.58 501.35,-44.84 506,-39.6"/>
</g>
</g>
</svg>